<?xml version="1.0" encoding="utf-8"?>
<svg xmlns="http://www.w3.org/2000/svg" version="1.1" width="1000" height="800">

<line x1="225" y1="85" x2="275" y2="170" stroke="black" />
<text x="250" y="122.5" fill="green" >1</text>
<line x1="175" y1="170" x2="275" y2="170" stroke="black" />
<text x="225" y="165" fill="green" >2</text>
<line x1="75" y1="340" x2="175" y2="340" stroke="black" />
<text x="125" y="335" fill="green" >15</text>
<line x1="275" y1="170" x2="225" y2="255" stroke="black" />
<text x="250" y="207.5" fill="green" >5</text>
<line x1="325" y1="255" x2="275" y2="340" stroke="black" />
<text x="300" y="292.5" fill="green" >13</text>
<line x1="325" y1="255" x2="375" y2="340" stroke="black" />
<text x="350" y="292.5" fill="green" >14</text>
<line x1="225" y1="255" x2="275" y2="340" stroke="black" />
<text x="250" y="292.5" fill="green" >12</text>
<line x1="125" y1="255" x2="75" y2="340" stroke="black" />
<text x="100" y="292.5" fill="green" >9</text>
<line x1="225" y1="255" x2="175" y2="340" stroke="black" />
<text x="200" y="292.5" fill="green" >11</text>
<circle cx="225" cy="85" r="10" fill="black" />
<text x="221" y="90" fill="white" >0</text>
<circle cx="175" cy="170" r="10" fill="black" />
<text x="171" y="175" fill="white" >1</text>
<circle cx="275" cy="170" r="10" fill="black" />
<text x="271" y="175" fill="white" >2</text>
<circle cx="125" cy="255" r="10" fill="black" />
<text x="121" y="260" fill="white" >3</text>
<circle cx="225" cy="255" r="10" fill="black" />
<text x="221" y="260" fill="white" >4</text>
<circle cx="325" cy="255" r="10" fill="black" />
<text x="321" y="260" fill="white" >5</text>
<circle cx="75" cy="340" r="10" fill="black" />
<text x="71" y="345" fill="white" >6</text>
<circle cx="175" cy="340" r="10" fill="black" />
<text x="171" y="345" fill="white" >7</text>
<circle cx="275" cy="340" r="10" fill="black" />
<text x="271" y="345" fill="white" >8</text>
<circle cx="375" cy="340" r="10" fill="black" />
<text x="371" y="345" fill="white" >9</text>
<text x="100" y="600" fill="black" >Poids totaux : </text>
<text x="200" y="600" fill="black" >(</text>
<text x="205" y="600" fill="black" >54</text>
<text x="222" y="600" fill="black" >,</text>
<text x="227" y="600" fill="black" >23</text>
<text x="244" y="600" fill="black" >)</text>


</svg>
